<svg width="155" height="43" xmlns="http://www.w3.org/2000/svg">
  <g fill="none" fill-rule="evenodd">
    <path d="M4.76 33.542h-1.8a2.693 2.693 0 01-2.702-2.684V12.017A2.693 2.693 0 012.96 9.333h1.505a2.693 2.693 0 012.702 2.684v19.135c0 1.32-1.078 2.39-2.406 2.39M42.711 42.874h-1.8a2.693 2.693 0 01-2.702-2.684V2.684A2.693 2.693 0 0140.91 0h1.504a2.693 2.693 0 012.702 2.684v37.8c0 1.32-1.077 2.39-2.406 2.39M17.411 42.874h-1.8a2.693 2.693 0 01-2.703-2.684V2.684A2.693 2.693 0 0115.61 0h1.505a2.693 2.693 0 012.702 2.684v37.8c0 1.32-1.077 2.39-2.406 2.39M55.362 33.542H53.56a2.693 2.693 0 01-2.702-2.684V12.017a2.693 2.693 0 012.702-2.684h1.504a2.693 2.693 0 012.703 2.684v19.135c0 1.32-1.078 2.39-2.406 2.39M30.061 34.3h-1.8a2.693 2.693 0 01-2.703-2.683V13.31a2.693 2.693 0 012.702-2.684h1.505a2.693 2.693 0 012.702 2.684v18.6c0 1.32-1.077 2.39-2.406 2.39" fill="#ffffff"/><path d="M88.218 23.484l-1.424-3.07h-.019l-1.405 3.07h2.848zm-7.702 3.983l5.865-12.526a.382.382 0 01.319-.204h.187a.38.38 0 01.319.204l5.865 12.526c.112.243-.038.485-.319.485h-2.08c-.337 0-.487-.112-.656-.466l-.674-1.47h-5.096l-.675 1.489a.698.698 0 01-.674.447h-2.061c-.282 0-.432-.242-.32-.485zM107.798 14.737c1.874 0 3.26.577 4.535 1.73a.344.344 0 01.018.522l-1.462 1.507a.33.33 0 01-.468 0 3.842 3.842 0 00-2.53-.95c-2.117 0-3.672 1.75-3.672 3.836 0 2.065 1.574 3.777 3.691 3.777.88 0 1.836-.316 2.51-.893.132-.112.376-.112.488.019l1.462 1.544c.13.13.112.373-.02.503-1.274 1.228-2.885 1.805-4.552 1.805-3.747 0-6.764-2.959-6.764-6.681 0-3.723 3.017-6.72 6.764-6.72M123.387 15.034c.019-.167.187-.297.337-.297h.3c.094 0 .262.074.319.186l4.347 8.04h.037l4.347-8.04c.056-.112.224-.186.319-.186h.3c.15 0 .318.13.336.297l2.118 12.508c.037.242-.131.41-.356.41h-2.211c-.17 0-.337-.15-.356-.298l-.844-5.751h-.037l-3.148 6.03a.438.438 0 01-.318.205h-.338a.407.407 0 01-.318-.205l-3.166-6.03h-.038l-.825 5.75a.364.364 0 01-.356.298h-2.21c-.226 0-.394-.167-.356-.41l2.117-12.507zM146.04 15.276c0-.185.15-.353.356-.353h7.757c.206 0 .356.168.356.353v2.03c0 .185-.15.353-.356.353h-5.19v2.308h4.272c.187 0 .356.167.356.354v2.028a.355.355 0 01-.356.354h-4.273v2.513h5.19c.207 0 .357.167.357.353v2.029c0 .186-.15.354-.356.354h-7.757a.355.355 0 01-.356-.354V15.276z" fill="#ffffff"/>
  </g>
</svg>
